# xmcd
#
# Track frame offsets:
#	150
#	2147
#	13915
#	30417
#	49832
#	66192
#	87987
#	105607
#	122687
#	138245
#	168810
#	186157
#	215167
#	231145
#
# Disc length: 3324 seconds
#
# Revision: 0
# Processed by: cddbd v1.5.1PL0 Copyright (c) Steve Scherf et al.
# Submitted via: dBpowerAMP V4.0
#
DISCID=ba0cfa0e
DTITLE=J. Teixi Band - Showtime
DYEAR=1999
DGENRE=Blues
TTITLE0=01 Intro
TTITLE1=02 Going to a Go-Go
TTITLE2=03 Solo Puedo
TTITLE3=04 Necesitas Algo
TTITLE4=05 Eres la lluvia
TTITLE5=06 Atrapado
TTITLE6=07 De que vas
TTITLE7=08 Algun dia se
TTITLE8=09 Infierno y solitario
TTITLE9=10 Gloria
TTITLE10=11 No pasa mas
TTITLE11=12 Algo de Amor
TTITLE12=13 Calles Quemadas
TTITLE13=14 Sentado en la esquina
EXTD=
EXTT0=
EXTT1=
EXTT2=
EXTT3=
EXTT4=
EXTT5=
EXTT6=
EXTT7=
EXTT8=
EXTT9=
EXTT10=
EXTT11=
EXTT12=
EXTT13=
PLAYORDER=
